<svg xmlns="http://www.w3.org/2000/svg" width="375" viewBox="0 0 375 375" height="375" version="1.0"><defs><clipPath id="a"><path d="M 58 32.40625 L 179 32.40625 L 179 195 L 58 195 Z M 58 32.40625"/></clipPath></defs><g fill="#2B2B2B"><g><g><path d="M 347.03125 -230.3125 L 334.015625 -229.125 C 327.179688 -228.59375 322.847656 -223.859375 321.015625 -214.921875 L 271.3125 0 L 217.296875 0 L 175.890625 -175.484375 L 174.703125 -175.484375 L 134.46875 0 L 78.875 0 L 24.453125 -227.546875 L 1.96875 -228.734375 L 1.96875 -262.25 L 99.765625 -262.25 L 99.765625 -230.3125 L 86.765625 -229.125 C 78.609375 -228.332031 74.53125 -224.914062 74.53125 -218.875 C 74.53125 -217.820312 74.660156 -216.632812 74.921875 -215.3125 L 109.234375 -63.09375 L 110.8125 -63.09375 L 151.828125 -241.34375 L 202.703125 -241.34375 L 245.296875 -62.3125 L 246.078125 -62.3125 L 279.59375 -227.15625 L 258.3125 -228.734375 L 258.3125 -262.25 L 347.03125 -262.25 Z M 347.03125 -230.3125" transform="translate(11.425 332.348)"/></g></g></g><g clip-path="url(#a)"><path fill="#F18C73" d="M 76.6875 138.796875 C 76.6875 138.796875 160.367188 33.085938 173.226562 32.394531 C 186.089844 39.996094 169.46875 54.730469 168.082031 58.761719 C 166.699219 62.792969 93.300781 194.761719 76.6875 194.074219 C 60.066406 193.382812 45.457031 177.195312 76.6875 138.796875 Z M 76.6875 138.796875"/></g><path fill="#FDEBDE" d="M 67.285156 228.117188 C 62.84375 232.089844 57.90625 235.164062 52.9375 236.871094 C 18.542969 248.648438 30.351562 263.5 29.324219 266.0625 C 28.300781 268.617188 14.4375 257.867188 17.519531 235.839844 C 18.570312 228.316406 20.933594 217.15625 25.054688 206.09375 C 32.988281 184.777344 47.449219 163.816406 71.628906 169.839844 C 79.515625 175.007812 83.429688 181.851562 84.445312 189.207031 C 86.335938 202.835938 78.328125 218.242188 67.285156 228.117188 Z M 67.285156 228.117188"/><path fill="#E94B59" d="M 67.285156 228.117188 C 62.84375 232.089844 57.90625 235.164062 52.9375 236.871094 C 18.542969 248.648438 30.351562 263.5 29.324219 266.0625 C 28.300781 268.617188 14.4375 257.867188 17.519531 235.839844 C 18.570312 228.316406 20.933594 217.15625 25.054688 206.09375 C 29.886719 205.195312 32.488281 210.808594 29.371094 215.71875 C 24.980469 222.628906 24.523438 244.285156 26.832031 239.210938 C 29.136719 234.148438 27.523438 228.394531 35.605469 231.613281 C 43.679688 234.839844 40.910156 226.546875 42.988281 222.632812 C 45.0625 218.71875 56.835938 214.800781 53.011719 225.394531 C 50.242188 233.0625 60.121094 227.949219 67.285156 228.117188 Z M 67.285156 228.117188"/><path stroke-linecap="round" transform="matrix(1.182 0 0 1.17948 -153.716 -101.345)" fill="none" stroke-linejoin="round" d="M 146.598756 291.764448 C 146.598756 291.764448 146.889579 298.351696 149.08727 303.037948" stroke="#ED6C71" stroke-width="4.556" stroke-miterlimit="10"/><path stroke-linecap="round" transform="matrix(1.182 0 0 1.17948 -153.716 -101.345)" fill="none" stroke-linejoin="round" d="M 147.841361 280.633357 C 147.841361 280.633357 149.672219 267.597959 151.724499 265.256489" stroke="#ED6C71" stroke-width="4.556" stroke-miterlimit="10"/><path stroke-linecap="round" transform="matrix(1.182 0 0 1.17948 -153.716 -101.345)" fill="none" stroke-linejoin="round" d="M 218.944105 181.92731 C 218.944105 181.92731 236.90899 156.542064 240.421991 152.829493" stroke="#C77660" stroke-width="4.556" stroke-miterlimit="10"/><path stroke-linecap="round" transform="matrix(1.182 0 0 1.17948 -153.716 -101.345)" fill="none" stroke-linejoin="round" d="M 244.328264 147.752444 C 244.328264 147.752444 249.599418 140.724721 250.772621 140.138526" stroke="#C77660" stroke-width="4.556" stroke-miterlimit="10"/></svg>